# xmcd
#
# Track frame offsets:
#	150
#	15317
#	37102
#	55762
#	72117
#	89885
#	101756
#	113994
#	129760
#	143217
#	160445
#	175206
#	188228
#	204877
#	220680
#
# Disc length: 3131 seconds
#
# Revision: 1
# Processed by: cddbd v1.5.2PL0 Copyright (c) Steve Scherf et al.
# Submitted via: audiograbber 1.83.01
#
DISCID=d20c390f
DTITLE=Various Artist - Country Radio June 2013
DYEAR=2013
DGENRE=Country
TTITLE0=Crash my party Luke Bryan
TTITLE1=Boys round here Blake shelton ft pistol annies and friends
TTITLE2=See you again radio edit Carrie Underwood
TTITLE3=Your side of the bed Little big town
TTITLE4=I want crazy Hunter Hayes
TTITLE5=I can take it from there acoustic version Chris Young
TTITLE6=Ho hey Lennon and Maisy
TTITLE7=Dance baby dance Chris Cagle
TTITLE8=Point at you Justin Moore
TTITLE9=See you tonight Scotty McCreery
TTITLE10=Complete 360 Kix Brooks
TTITLE11=Hypnotizing Hayden panettiere
TTITLE12=Last Train to Memphis radio edit Jared Ashley
TTITLE13=Cruise Remix Florida Georgia Line ft Nelly
TTITLE14=Something you can't live without Wynonna
EXTD=
EXTT0=
EXTT1=
EXTT2=
EXTT3=
EXTT4=
EXTT5=
EXTT6=
EXTT7=
EXTT8=
EXTT9=
EXTT10=
EXTT11=
EXTT12=
EXTT13=
EXTT14=
PLAYORDER=
